<svg width="169" height="41" viewBox="0 0 169 41" fill="none" xmlns="http://www.w3.org/2000/svg">
<g filter="url(#filter0_i_0_1)">
<path d="M5.15006 5.992V31H0.734063V0.615999H6.39806C8.86206 5.736 11.4541 12.744 14.1741 21.64C14.7821 23.624 15.2461 25.144 15.5661 26.2C15.8541 25.272 16.1741 24.248 16.5261 23.128C19.5341 13.528 22.2861 6.024 24.7821 0.615999H30.4941V31H26.0301V5.896C24.7821 10.344 21.9021 18.712 17.3901 31H13.8381C12.3981 27.64 10.7501 23.304 8.89406 17.992C7.07006 12.648 5.82206 8.648 5.15006 5.992ZM55.0607 31H51.8447L51.3647 28.744C49.6367 30.632 47.3007 31.576 44.3567 31.576C42.1167 31.576 40.3407 30.968 39.0287 29.752C37.7487 28.504 37.1087 26.824 37.1087 24.712C37.1087 22.312 38.0847 20.472 40.0367 19.192C42.0207 17.88 44.8207 17.224 48.4367 17.224H50.9807V16.984C50.9807 13.656 49.3007 11.992 45.9407 11.992C43.7967 11.992 41.7967 12.68 39.9407 14.056L38.6927 11.848C41.1887 9.704 44.0527 8.632 47.2847 8.632C52.4687 8.632 55.0607 11.72 55.0607 17.896V31ZM50.9327 20.008H48.8207C43.8927 20.008 41.4287 21.48 41.4287 24.424C41.4287 25.64 41.7807 26.6 42.4847 27.304C43.2207 28.008 44.1967 28.36 45.4127 28.36C46.6287 28.36 47.7647 28.056 48.8207 27.448C49.8767 26.808 50.5807 26.008 50.9327 25.048V20.008ZM80.4583 9.208L71.0983 34.264C69.5943 38.2 67.5623 40.168 65.0023 40.168C63.2743 40.168 61.4823 39.48 59.6263 38.104L60.8743 35.992C61.9623 36.632 62.9063 36.952 63.7063 36.952C65.1783 36.952 66.3463 35.896 67.2103 33.784L68.3143 31H67.4503L59.2903 9.208H63.5623L69.7543 26.488L76.1383 9.208H80.4583ZM100.508 15.208H104.828V17.08C104.828 20.728 104.156 23.576 102.812 25.624L107.612 31H102.668L100.556 28.696C98.7641 30.616 96.2841 31.576 93.1161 31.576C90.1401 31.576 87.7721 30.632 86.0121 28.744C84.5401 27.176 83.8041 25.272 83.8041 23.032C83.8041 21.4 84.2361 19.8 85.1001 18.232C85.9641 16.664 87.1001 15.416 88.5081 14.488L87.9321 13.864C85.7241 11.432 84.6201 9.176 84.6201 7.096C84.6201 4.984 85.3241 3.288 86.7321 2.008C88.1721 0.727998 90.0601 0.0879974 92.3961 0.0879974C94.5721 0.0879974 96.8761 0.919998 99.3081 2.584L97.4361 5.224C95.7721 4.328 94.0761 3.88 92.3481 3.88C89.8841 3.88 88.6521 4.904 88.6521 6.952C88.6521 8.456 89.6601 10.392 91.6761 12.76L99.8841 22.312C100.3 21.48 100.508 19.992 100.508 17.848V15.208ZM90.7161 17.032C90.0441 17.576 89.4681 18.36 88.9881 19.384C88.5401 20.408 88.3161 21.368 88.3161 22.264C88.3161 23.896 88.7801 25.208 89.7081 26.2C90.6361 27.192 91.8521 27.688 93.3561 27.688C95.3081 27.688 96.8121 27 97.8681 25.624L90.7161 17.032ZM115.756 0.615999V32.584C115.756 36.904 113.788 39.064 109.852 39.064C107.772 39.064 105.74 38.376 103.756 37L105.292 34.6C106.508 35.304 107.676 35.656 108.796 35.656C110.492 35.656 111.34 34.52 111.34 32.248V0.615999H115.756ZM132.562 31.576C129.266 31.576 126.594 30.344 124.546 27.88C122.786 25.768 121.906 23.192 121.906 20.152C121.906 16.632 122.978 13.784 125.122 11.608C127.042 9.624 129.506 8.632 132.514 8.632C135.97 8.632 138.69 9.896 140.674 12.424C142.306 14.536 143.122 17.112 143.122 20.152C143.122 23.64 142.002 26.488 139.762 28.696C137.778 30.616 135.378 31.576 132.562 31.576ZM132.466 28.312C134.386 28.312 135.906 27.576 137.026 26.104C138.178 24.632 138.754 22.648 138.754 20.152C138.754 17.56 138.146 15.496 136.93 13.96C135.81 12.52 134.338 11.8 132.514 11.8C130.658 11.8 129.154 12.568 128.002 14.104C126.85 15.64 126.274 17.656 126.274 20.152C126.274 22.84 126.914 24.92 128.194 26.392C129.314 27.672 130.738 28.312 132.466 28.312ZM153.302 0.0399981V11.608C155.094 9.624 157.35 8.632 160.07 8.632C165.414 8.632 168.086 11.768 168.086 18.04V31H163.958V18.28C163.958 14.216 162.166 12.184 158.582 12.184C157.59 12.184 156.582 12.424 155.558 12.904C154.534 13.384 153.782 13.96 153.302 14.632V31H149.174V2.248L153.302 0.0399981Z" fill="#010000"/>
</g>
<defs>
<filter id="filter0_i_0_1" x="0.734062" y="0.0400009" width="167.352" height="44.128" filterUnits="userSpaceOnUse" color-interpolation-filters="sRGB">
<feFlood flood-opacity="0" result="BackgroundImageFix"/>
<feBlend mode="normal" in="SourceGraphic" in2="BackgroundImageFix" result="shape"/>
<feColorMatrix in="SourceAlpha" type="matrix" values="0 0 0 0 0 0 0 0 0 0 0 0 0 0 0 0 0 0 127 0" result="hardAlpha"/>
<feOffset dy="4"/>
<feGaussianBlur stdDeviation="2"/>
<feComposite in2="hardAlpha" operator="arithmetic" k2="-1" k3="1"/>
<feColorMatrix type="matrix" values="0 0 0 0 0 0 0 0 0 0 0 0 0 0 0 0 0 0 0.25 0"/>
<feBlend mode="normal" in2="shape" result="effect1_innerShadow_0_1"/>
</filter>
</defs>
</svg>
