<svg width="149" height="47" viewBox="0 0 149 47" fill="none" xmlns="http://www.w3.org/2000/svg">
<path d="M5.89844 37.3047C4.88281 37.3307 4.04948 37.1484 3.39844 36.7578C2.72135 36.3672 2.20052 35.7943 1.83594 35.0391C1.44531 34.3099 1.19792 33.4115 1.09375 32.3438C0.989583 31.3021 0.989583 30.1562 1.09375 28.9062C1.22396 27.9427 1.45833 26.9401 1.79688 25.8984C2.08333 25.013 2.52604 24.0365 3.125 22.9688C3.69792 21.901 4.47917 20.8594 5.46875 19.8438C5.67708 19.8958 5.84635 19.9609 5.97656 20.0391C6.10677 20.0911 6.21094 20.1562 6.28906 20.2344C6.36719 20.3385 6.41927 20.4297 6.44531 20.5078C6.4974 20.7943 6.41927 21.1198 6.21094 21.4844C6.0026 21.849 5.79427 22.2396 5.58594 22.6562C5.01302 23.8542 4.58333 24.987 4.29688 26.0547C4.01042 27.1224 3.82812 28.112 3.75 29.0234C3.69792 29.8047 3.71094 30.5078 3.78906 31.1328C3.84115 31.7839 3.93229 32.3307 4.0625 32.7734C4.19271 33.2422 4.33594 33.5938 4.49219 33.8281C4.64844 34.0885 4.79167 34.2188 4.92188 34.2188C5.05208 34.2188 5.18229 34.1276 5.3125 33.9453C5.46875 33.763 5.61198 33.5417 5.74219 33.2812C5.89844 33.0208 6.08073 32.6172 6.28906 32.0703C6.4974 31.5495 6.71875 30.9375 6.95312 30.2344C7.1875 29.5312 7.40885 28.776 7.61719 27.9688C7.85156 27.1354 8.0599 26.3021 8.24219 25.4688C8.60677 23.8021 8.9974 21.9271 9.41406 19.8438C9.83073 17.7344 10.4427 15.5339 11.25 13.2422C11.5104 12.2786 11.8359 11.224 12.2266 10.0781C12.5391 9.08854 12.9297 7.94271 13.3984 6.64062C13.8932 5.3125 14.4531 3.88021 15.0781 2.34375C15.0781 2.21354 15.1823 2.09635 15.3906 1.99219C15.625 1.86198 15.8854 1.73177 16.1719 1.60156C16.4844 1.47135 16.8359 1.34115 17.2266 1.21094C17.7474 1.02865 18.151 0.924479 18.4375 0.898438C18.75 0.872396 18.9844 0.911458 19.1406 1.01562C19.2969 1.11979 19.401 1.26302 19.4531 1.44531C19.5052 1.60156 19.5312 1.78385 19.5312 1.99219C19.5833 2.85156 19.6094 3.65885 19.6094 4.41406C19.6354 5.16927 19.6615 5.83333 19.6875 6.40625C19.7135 7.08333 19.7266 7.69531 19.7266 8.24219C19.7526 8.97135 19.7135 9.94792 19.6094 11.1719C19.5052 12.3698 19.388 13.6328 19.2578 14.9609C19.1536 16.2891 19.0495 17.5911 18.9453 18.8672C18.8672 20.1172 18.8542 21.1589 18.9062 21.9922C18.9062 22.4349 18.9193 22.8516 18.9453 23.2422C18.9974 23.6068 19.0495 23.9714 19.1016 24.3359C19.4401 23.3984 19.8177 22.4219 20.2344 21.4062C20.651 20.3646 21.0677 19.375 21.4844 18.4375C21.901 17.474 22.2917 16.5885 22.6562 15.7812C23.0208 14.9479 23.3073 14.2578 23.5156 13.7109C23.8281 12.9818 24.2448 12.0573 24.7656 10.9375C25.2865 9.81771 25.8073 8.69792 26.3281 7.57812C26.875 6.45833 27.3698 5.42969 27.8125 4.49219C28.2812 3.55469 28.6198 2.90365 28.8281 2.53906C28.9844 2.27865 29.2448 2.04427 29.6094 1.83594C30 1.6276 30.4036 1.44531 30.8203 1.28906C31.263 1.13281 31.6667 1.02865 32.0312 0.976562C32.4219 0.898438 32.6823 0.885417 32.8125 0.9375C33.151 1.01562 33.3854 1.11979 33.5156 1.25C33.6719 1.38021 33.763 1.47135 33.7891 1.52344C33.8411 1.6276 33.8802 1.8099 33.9062 2.07031C33.9323 2.30469 33.9193 2.68229 33.8672 3.20312C33.8151 3.82812 33.6589 4.77865 33.3984 6.05469C33.1641 7.33073 32.8646 8.78906 32.5 10.4297C32.1615 12.0443 31.7839 13.776 31.3672 15.625C30.9766 17.474 30.599 19.2969 30.2344 21.0938C29.8698 22.8646 29.5443 24.5312 29.2578 26.0938C28.9974 27.6562 28.8281 28.9714 28.75 30.0391C28.6979 31.237 28.776 32.2917 28.9844 33.2031C29.0625 33.5938 29.1797 33.9714 29.3359 34.3359C29.4922 34.7005 29.7005 35.013 29.9609 35.2734C30.2214 35.5599 30.5339 35.7682 30.8984 35.8984C31.263 36.0286 31.6927 36.0677 32.1875 36.0156C31.5365 36.4583 30.8984 36.7839 30.2734 36.9922C29.6484 37.2005 29.0365 37.3047 28.4375 37.3047C27.7865 37.3307 27.2135 37.2266 26.7188 36.9922C26.224 36.7839 25.8073 36.4714 25.4688 36.0547C25.1302 35.6641 24.8828 35.1823 24.7266 34.6094C24.5703 34.0625 24.5182 33.4505 24.5703 32.7734C24.6224 32.1484 24.7917 31.1198 25.0781 29.6875C25.3646 28.2552 25.7031 26.6406 26.0938 24.8438C26.5104 23.0208 26.9531 21.1328 27.4219 19.1797C27.9167 17.2005 28.3724 15.3516 28.7891 13.6328C29.2318 11.888 29.6094 10.3906 29.9219 9.14062C30.2344 7.89062 30.4297 7.07031 30.5078 6.67969C30.5599 6.36719 30.599 6.08073 30.625 5.82031C30.6771 5.53385 30.7292 5.28646 30.7812 5.07812C30.5208 5.59896 30.1953 6.22396 29.8047 6.95312C29.4401 7.68229 29.0495 8.46354 28.6328 9.29688C28.2161 10.1302 27.7865 11.0026 27.3438 11.9141C26.9271 12.7995 26.5234 13.6589 26.1328 14.4922C25.4818 15.8464 24.8438 17.2396 24.2188 18.6719C23.5938 20.0781 23.0339 21.4193 22.5391 22.6953C22.0443 23.9714 21.6276 25.1172 21.2891 26.1328C20.9766 27.1484 20.7943 27.9297 20.7422 28.4766V29.0234C20.7422 29.1797 20.7422 29.362 20.7422 29.5703C20.7682 29.7786 20.8073 29.974 20.8594 30.1562L19.2969 31.3672C19.0625 31.4453 18.8542 31.5104 18.6719 31.5625C18.5156 31.6146 18.3594 31.6406 18.2031 31.6406C17.6042 31.6406 17.1484 31.3281 16.8359 30.7031C16.5234 30.1302 16.237 29.0104 15.9766 27.3438C15.7161 25.6771 15.638 23.6328 15.7422 21.2109C15.7943 20.013 15.8724 18.8021 15.9766 17.5781C16.1068 16.3542 16.224 15.1823 16.3281 14.0625C16.4583 12.9427 16.5755 11.901 16.6797 10.9375C16.7839 9.94792 16.8359 9.10156 16.8359 8.39844C16.862 7.8776 16.849 7.40885 16.7969 6.99219C16.7448 6.54948 16.6927 6.14583 16.6406 5.78125C16.4062 6.38021 16.1458 7.20052 15.8594 8.24219C15.5729 9.25781 15.2734 10.3906 14.9609 11.6406C14.6484 12.8906 14.3229 14.2057 13.9844 15.5859C13.6719 16.9661 13.3594 18.2943 13.0469 19.5703C12.7604 20.8464 12.487 22.0312 12.2266 23.125C11.9661 24.1927 11.7578 25.0521 11.6016 25.7031C11.3411 26.7448 11.0807 27.9297 10.8203 29.2578C10.5599 30.5859 10.2344 31.8359 9.84375 33.0078C9.45312 34.2057 8.94531 35.2083 8.32031 36.0156C7.69531 36.849 6.88802 37.2786 5.89844 37.3047ZM55.175 22.2266C54.8104 22.7474 54.3417 23.3984 53.7687 24.1797C53.1958 24.9349 52.5969 25.7031 51.9719 26.4844C51.3729 27.2396 50.774 27.9427 50.175 28.5938C49.6021 29.2188 49.1203 29.6615 48.7297 29.9219C48.4693 30.0781 48.1698 30.2083 47.8312 30.3125C47.4927 30.4167 47.1411 30.4818 46.7766 30.5078C46.438 30.5339 46.1125 30.5078 45.8 30.4297C45.4875 30.3776 45.2141 30.2734 44.9797 30.1172C44.7453 29.9349 44.55 29.6745 44.3937 29.3359C44.2635 29.0495 44.1333 28.6719 44.0031 28.2031C43.899 27.7344 43.8599 27.1484 43.8859 26.4453C43.2609 27.487 42.5708 28.2943 41.8156 28.8672C41.0604 29.4141 40.3443 29.8177 39.6672 30.0781C38.8859 30.3646 38.1047 30.5339 37.3234 30.5859C36.9589 30.5859 36.5682 30.4557 36.1516 30.1953C35.7349 29.9609 35.3833 29.5833 35.0969 29.0625C34.8104 28.5156 34.6281 27.8255 34.55 26.9922C34.4719 26.1328 34.576 25.1172 34.8625 23.9453C35.2271 22.3568 35.8 20.9115 36.5812 19.6094C37.3885 18.3073 38.2609 17.2005 39.1984 16.2891C40.1359 15.3516 41.0604 14.6484 41.9719 14.1797C42.8833 13.7109 43.6385 13.5026 44.2375 13.5547C44.9406 13.6849 45.5135 13.8932 45.9562 14.1797C46.3208 14.4401 46.5552 14.8307 46.6594 15.3516C46.7896 15.8464 46.5812 16.5104 46.0344 17.3438C46.399 17.2656 46.6984 17.2135 46.9328 17.1875C47.1932 17.1615 47.3885 17.1484 47.5187 17.1484C47.675 17.1484 47.7792 17.1615 47.8312 17.1875C47.8573 17.2396 47.8703 17.3568 47.8703 17.5391C47.8703 17.6953 47.8312 17.9948 47.7531 18.4375C47.675 18.8802 47.5578 19.4792 47.4016 20.2344C47.2453 20.9896 47.037 21.9661 46.7766 23.1641C46.7245 23.3984 46.6724 23.6198 46.6203 23.8281C46.5943 24.0104 46.5552 24.2057 46.5031 24.4141C46.4771 24.5964 46.438 24.8177 46.3859 25.0781C46.3339 25.3385 46.2687 25.6641 46.1906 26.0547C46.1646 26.2891 46.1516 26.5495 46.1516 26.8359C46.1776 27.0964 46.2297 27.3438 46.3078 27.5781C46.3859 27.8125 46.5031 28.0078 46.6594 28.1641C46.8417 28.2943 47.0891 28.3594 47.4016 28.3594C47.662 28.3594 48.0005 28.2031 48.4172 27.8906C48.8339 27.5521 49.2766 27.1354 49.7453 26.6406C50.2141 26.1198 50.6958 25.5599 51.1906 24.9609C51.7115 24.3359 52.1932 23.737 52.6359 23.1641C53.0786 22.5911 53.4693 22.0833 53.8078 21.6406C54.1724 21.1979 54.4328 20.8724 54.5891 20.6641C54.7974 20.4297 55.0057 20.2995 55.2141 20.2734C55.4224 20.2214 55.5786 20.2734 55.6828 20.4297C55.787 20.5859 55.8 20.8203 55.7219 21.1328C55.6698 21.4453 55.4875 21.8099 55.175 22.2266ZM43.7297 23.9453C43.8599 23.4245 44.0161 22.8125 44.1984 22.1094C44.3807 21.4062 44.537 20.7292 44.6672 20.0781C44.7974 19.4271 44.8885 18.8932 44.9406 18.4766C45.0187 18.0339 45.0057 17.8255 44.9016 17.8516C44.7714 17.8776 44.6281 17.9167 44.4719 17.9688C44.3417 18.0208 44.1724 18.0599 43.9641 18.0859C43.7557 18.112 43.5474 18.151 43.3391 18.2031C43.5474 17.7865 43.6646 17.4479 43.6906 17.1875C43.7427 16.901 43.7557 16.6797 43.7297 16.5234C43.7036 16.3411 43.6516 16.1979 43.5734 16.0938C43.287 15.8594 42.7792 16.0547 42.05 16.6797C41.3469 17.2786 40.5266 18.3984 39.5891 20.0391C39.1984 20.7161 38.8859 21.4453 38.6516 22.2266C38.4172 22.9818 38.2479 23.6979 38.1437 24.375C38.0656 25.0521 38.0526 25.651 38.1047 26.1719C38.1568 26.6667 38.2609 26.9922 38.4172 27.1484C38.7036 27.4349 39.0292 27.5781 39.3937 27.5781C39.7583 27.5521 40.1229 27.4479 40.4875 27.2656C40.8781 27.0573 41.2557 26.7969 41.6203 26.4844C42.0109 26.1719 42.3495 25.8464 42.6359 25.5078C42.9484 25.1693 43.1958 24.8568 43.3781 24.5703C43.5865 24.2839 43.7036 24.0755 43.7297 23.9453ZM63.6312 15.625C63.9698 15.3646 64.2953 15.1693 64.6078 15.0391C64.9464 14.8828 65.2458 14.7786 65.5062 14.7266C65.7927 14.6484 66.0792 14.6224 66.3656 14.6484C67.0687 14.7005 67.4984 14.9219 67.6547 15.3125C67.837 15.7031 67.863 16.3281 67.7328 17.1875C67.6547 17.6302 67.4984 18.1901 67.2641 18.8672C67.0297 19.5443 66.7562 20.3776 66.4437 21.3672C66.1312 22.3307 65.7927 23.4375 65.4281 24.6875C65.0896 25.9375 64.7641 27.3438 64.4516 28.9062C64.1391 30.1823 63.8005 31.6536 63.4359 33.3203C63.1234 34.7786 62.7458 36.5365 62.3031 38.5938C61.8865 40.651 61.4307 43.0078 60.9359 45.6641C60.8057 46.3151 60.5193 46.6927 60.0766 46.7969C59.6599 46.901 59.2172 46.849 58.7484 46.6406C58.5661 46.5365 58.3969 46.4193 58.2406 46.2891C58.1104 46.1589 57.9672 46.0026 57.8109 45.8203C57.6547 45.6641 57.5245 45.4427 57.4203 45.1562C58.0193 42.9688 58.5401 40.9766 58.9828 39.1797C59.4516 37.3828 59.8682 35.8203 60.2328 34.4922C60.6234 32.9557 60.988 31.5755 61.3266 30.3516C61.4568 29.8047 61.574 29.2708 61.6781 28.75C61.8083 28.2031 61.9385 27.6693 62.0687 27.1484C61.7302 27.6953 61.3656 28.2161 60.975 28.7109C60.5844 29.2057 60.1547 29.6354 59.6859 30C59.2172 30.3646 58.7094 30.638 58.1625 30.8203C57.6417 31.0286 57.0948 31.0938 56.5219 31.0156C55.1156 30.8333 54.113 30.3125 53.5141 29.4531C52.9411 28.5938 52.6937 27.474 52.7719 26.0938C52.7979 25.5469 52.876 24.9479 53.0062 24.2969C53.1365 23.6458 53.2797 23.0208 53.4359 22.4219C53.5922 21.8229 53.7354 21.2891 53.8656 20.8203C54.0219 20.3255 54.1391 19.974 54.2172 19.7656C54.5297 18.776 54.751 17.9297 54.8812 17.2266C55.0375 16.5234 54.9333 15.9375 54.5687 15.4688C54.9333 15.2344 55.2719 15.0781 55.5844 15C55.9229 14.8958 56.2224 14.8177 56.4828 14.7656C56.7693 14.7396 57.0557 14.7396 57.3422 14.7656C58.0453 14.8698 58.449 15.1302 58.5531 15.5469C58.6833 15.9635 58.6443 16.5885 58.4359 17.4219C58.3318 17.8646 58.1625 18.4375 57.9281 19.1406C57.6937 19.8177 57.4464 20.5208 57.1859 21.25C56.9255 21.9792 56.6911 22.6562 56.4828 23.2812C56.2745 23.8802 56.1573 24.3099 56.1312 24.5703C55.8969 25.7422 55.8839 26.6536 56.0922 27.3047C56.3005 27.9297 56.7562 28.2422 57.4594 28.2422C57.7979 28.2422 58.1755 28.099 58.5922 27.8125C59.0089 27.5 59.4255 27.0964 59.8422 26.6016C60.2849 26.1068 60.7146 25.5469 61.1312 24.9219C61.5479 24.2708 61.9255 23.6198 62.2641 22.9688C62.6286 22.3177 62.9411 21.6797 63.2016 21.0547C63.488 20.4297 63.6964 19.8698 63.8266 19.375C64.0089 18.4115 64.126 17.6562 64.1781 17.1094C64.2302 16.5625 64.0479 16.0677 63.6312 15.625ZM86.3453 22.8125C86.5797 22.6042 86.801 22.487 87.0094 22.4609C87.2177 22.4349 87.374 22.487 87.4781 22.6172C87.6083 22.7214 87.6474 22.8906 87.5953 23.125C87.5693 23.3333 87.413 23.5938 87.1266 23.9062C86.5276 24.5052 85.8766 25.1562 85.1734 25.8594C84.4703 26.5365 83.676 27.1875 82.7906 27.8125C82.999 28.2031 83.2333 28.5547 83.4938 28.8672C83.7021 29.1536 83.9495 29.4401 84.2359 29.7266C84.5224 29.987 84.8479 30.1823 85.2125 30.3125C85.1604 30.4167 85.0432 30.5208 84.8609 30.625C84.6786 30.7292 84.4833 30.8464 84.275 30.9766C84.0406 31.1068 83.7802 31.25 83.4938 31.4062C82.7906 31.7448 82.2047 31.9271 81.7359 31.9531C81.2672 31.9792 80.8766 31.9141 80.5641 31.7578C80.2516 31.6016 80.0042 31.3672 79.8219 31.0547C79.6656 30.7422 79.5354 30.4167 79.4313 30.0781C79.4052 30.0521 79.3922 29.987 79.3922 29.8828C79.3922 29.8307 79.3792 29.7917 79.3531 29.7656C78.5198 30.1042 77.6474 30.3776 76.7359 30.5859C75.8245 30.7943 74.874 30.8984 73.8844 30.8984C72.6344 30.8984 71.6188 30.651 70.8375 30.1562C70.0823 29.6615 69.5224 29.0495 69.1578 28.3203C68.7672 27.5911 68.5328 26.8099 68.4547 25.9766C68.3766 25.1172 68.4026 24.3359 68.5328 23.6328C68.7672 22.1745 69.5094 20.612 70.7594 18.9453C72.0354 17.2786 73.7281 15.4167 75.8375 13.3594C75.9677 13.2292 76.1109 13.099 76.2672 12.9688C76.4234 12.8385 76.5667 12.7083 76.6969 12.5781C76.6969 11.875 76.7099 11.2109 76.7359 10.5859C76.788 9.9349 76.8401 9.3099 76.8922 8.71094C76.9182 8.47656 76.9443 8.25521 76.9703 8.04688C76.9964 7.8125 77.0354 7.57812 77.0875 7.34375C77.3479 6.01562 77.7646 4.90885 78.3375 4.02344C78.9104 3.11198 79.5354 2.38281 80.2125 1.83594C80.9156 1.26302 81.5927 0.859375 82.2438 0.625C82.9208 0.390625 83.4938 0.273438 83.9625 0.273438C84.275 0.273438 84.6135 0.325521 84.9781 0.429688C85.3688 0.533854 85.7073 0.716146 85.9938 0.976562C86.3063 1.23698 86.5406 1.58854 86.6969 2.03125C86.8531 2.47396 86.8792 3.03385 86.775 3.71094C86.6708 4.28385 86.5016 4.84375 86.2672 5.39062C86.0589 5.9375 85.7203 6.54948 85.2516 7.22656C84.8089 7.8776 84.1969 8.63281 83.4156 9.49219C82.6604 10.3516 81.6969 11.3802 80.525 12.5781C80.4208 12.6823 80.3167 12.7734 80.2125 12.8516C80.1344 12.9297 80.0563 13.0208 79.9781 13.125C80.1083 15.5208 80.3818 17.8255 80.7984 20.0391C81.2411 22.2526 81.6578 24.1536 82.0484 25.7422C82.1005 25.9505 82.1396 26.0938 82.1656 26.1719C82.7125 25.8333 83.2203 25.4948 83.6891 25.1562C84.1578 24.7917 84.5615 24.4531 84.9 24.1406C85.2646 23.8281 85.5641 23.5547 85.7984 23.3203C86.0589 23.0859 86.2411 22.9167 86.3453 22.8125ZM75.525 28.2422C76.0979 28.2422 76.6448 28.2031 77.1656 28.125C77.6865 28.0208 78.2073 27.9036 78.7281 27.7734C78.4938 26.9922 78.2333 26.0286 77.9469 24.8828C77.6865 23.737 77.4521 22.4479 77.2438 21.0156C77.1396 20.2604 77.0484 19.5052 76.9703 18.75C76.9182 17.9948 76.8661 17.2526 76.8141 16.5234C73.8193 19.8828 72.1656 22.474 71.8531 24.2969C71.801 24.6615 71.801 25.0781 71.8531 25.5469C71.9052 25.9896 72.0615 26.4193 72.3219 26.8359C72.5823 27.2266 72.9599 27.5651 73.4547 27.8516C73.9755 28.112 74.6656 28.2422 75.525 28.2422ZM80.2516 5.50781C80.0693 6.78385 79.9521 8.125 79.9 9.53125C81.15 8.30729 82.2177 7.21354 83.1031 6.25C83.9885 5.28646 84.4964 4.42708 84.6266 3.67188C84.6786 3.30729 84.6266 2.95573 84.4703 2.61719C84.3401 2.2526 84.0797 2.07031 83.6891 2.07031C83.2724 2.07031 82.8688 2.17448 82.4781 2.38281C82.0875 2.59115 81.7359 2.86458 81.4234 3.20312C81.137 3.51562 80.8896 3.88021 80.6813 4.29688C80.4729 4.6875 80.3297 5.09115 80.2516 5.50781ZM92.4187 37.6953C91.6635 37.6953 90.9214 37.5391 90.1922 37.2266C89.463 36.9401 88.812 36.5234 88.2391 35.9766C87.6661 35.4297 87.2104 34.7526 86.8719 33.9453C86.5333 33.1641 86.3901 32.2656 86.4422 31.25C86.5203 29.4792 86.8719 27.8385 87.4969 26.3281C88.1219 24.8177 88.851 23.5156 89.6844 22.4219C90.5177 21.3281 91.3641 20.4818 92.2234 19.8828C93.0828 19.2578 93.799 18.9453 94.3719 18.9453C94.7365 18.9453 95.062 19.0755 95.3484 19.3359C95.6609 19.5703 95.8953 19.8828 96.0516 20.2734C96.2339 20.638 96.338 21.0547 96.3641 21.5234C96.4161 21.9661 96.3641 22.3958 96.2078 22.8125C95.9474 22.6302 95.4656 22.6953 94.7625 23.0078C94.0594 23.3203 93.3302 23.8542 92.575 24.6094C91.8198 25.3385 91.1427 26.25 90.5437 27.3438C89.9448 28.4375 89.6062 29.6615 89.5281 31.0156C89.476 31.901 89.5151 32.6562 89.6453 33.2812C89.8016 33.9062 90.0099 34.4141 90.2703 34.8047C90.5568 35.1953 90.8693 35.4818 91.2078 35.6641C91.5724 35.8464 91.95 35.9375 92.3406 35.9375C93.2781 35.9375 94.1375 35.5859 94.9187 34.8828C95.7 34.1797 96.4161 33.1901 97.0672 31.9141C97.7182 30.6641 98.3302 29.1667 98.9031 27.4219C99.476 25.651 100.023 23.6979 100.544 21.5625C100.7 20.9115 100.895 20.1042 101.13 19.1406C101.39 18.1771 101.664 17.1354 101.95 16.0156C102.236 14.8698 102.536 13.6979 102.848 12.5C103.187 11.276 103.499 10.1172 103.786 9.02344C104.072 7.90365 104.346 6.875 104.606 5.9375C104.867 4.97396 105.075 4.19271 105.231 3.59375C104.372 3.59375 103.512 3.64583 102.653 3.75C101.924 3.82812 101.169 3.94531 100.387 4.10156C99.6062 4.23177 98.9552 4.41406 98.4344 4.64844C98.3823 4.6224 98.3432 4.55729 98.3172 4.45312C98.2911 4.32292 98.2651 4.19271 98.2391 4.0625C98.213 3.90625 98.187 3.73698 98.1609 3.55469C98.1349 3.34635 98.1349 3.13802 98.1609 2.92969C98.187 2.7474 98.213 2.55208 98.2391 2.34375C98.2651 2.10938 98.3172 1.875 98.3953 1.64062C99.0724 1.43229 99.8536 1.27604 100.739 1.17188C101.651 1.04167 102.497 0.950521 103.278 0.898438C104.19 0.820312 105.127 0.78125 106.091 0.78125C106.794 0.78125 107.523 0.820312 108.278 0.898438C108.929 0.950521 109.658 1.02865 110.466 1.13281C111.273 1.23698 112.08 1.39323 112.887 1.60156C113.07 1.78385 113.187 1.99219 113.239 2.22656C113.265 2.33073 113.278 2.44792 113.278 2.57812C113.278 2.78646 113.239 2.98177 113.161 3.16406C113.109 3.32031 113.018 3.48958 112.887 3.67188C112.783 3.82812 112.64 3.95833 112.458 4.0625C112.171 3.98438 111.807 3.93229 111.364 3.90625C110.947 3.85417 110.531 3.80208 110.114 3.75C109.645 3.69792 109.151 3.65885 108.63 3.63281L104.489 22.0703C104.385 22.513 104.203 23.2161 103.942 24.1797C103.682 25.1172 103.317 26.1719 102.848 27.3438C102.406 28.4896 101.859 29.6745 101.208 30.8984C100.583 32.1224 99.8406 33.2292 98.9812 34.2188C98.1219 35.2344 97.1453 36.0677 96.0516 36.7188C94.9578 37.3698 93.7469 37.6953 92.4187 37.6953ZM122.047 23.7891C121.786 24.7786 121.435 25.7031 120.992 26.5625C120.549 27.4219 120.016 28.1641 119.391 28.7891C118.792 29.4141 118.102 29.8958 117.32 30.2344C116.565 30.599 115.732 30.7812 114.82 30.7812C113.753 30.7812 112.906 30.5469 112.281 30.0781C111.682 29.6354 111.227 29.0755 110.914 28.3984C110.628 27.7214 110.458 26.9792 110.406 26.1719C110.328 25.3646 110.289 24.6094 110.289 23.9062C110.289 23.4115 110.354 22.8646 110.484 22.2656C110.589 21.6667 110.745 21.0547 110.953 20.4297C111.161 19.8047 111.422 19.1797 111.734 18.5547C112.073 17.9297 112.464 17.3568 112.906 16.8359C113.062 16.3932 113.297 16.0026 113.609 15.6641C113.948 15.3255 114.326 15.0521 114.742 14.8438C115.185 14.6094 115.654 14.4401 116.148 14.3359C116.643 14.2057 117.125 14.1406 117.594 14.1406C117.672 14.1406 117.737 14.1536 117.789 14.1797C117.867 14.2057 117.945 14.2318 118.023 14.2578C118.362 14.2839 118.779 14.4141 119.273 14.6484C119.794 14.8828 120.289 15.2344 120.758 15.7031C121.253 16.1719 121.669 16.7708 122.008 17.5C122.346 18.2031 122.516 19.0625 122.516 20.0781C122.516 20.2865 122.503 20.5469 122.477 20.8594C122.451 21.1458 122.424 21.3932 122.398 21.6016C122.997 21.3672 123.622 21.0807 124.273 20.7422C124.924 20.4036 125.549 20.0521 126.148 19.6875C126.773 19.2969 127.346 18.9062 127.867 18.5156C128.388 18.125 128.805 17.7734 129.117 17.4609C129.378 17.2266 129.599 17.0964 129.781 17.0703C129.964 17.0443 130.094 17.0964 130.172 17.2266C130.25 17.3568 130.263 17.5391 130.211 17.7734C130.159 18.0078 130.016 18.2682 129.781 18.5547C129.651 18.7109 129.312 19.0234 128.766 19.4922C128.245 19.9609 127.62 20.4688 126.891 21.0156C126.161 21.5625 125.367 22.0964 124.508 22.6172C123.648 23.138 122.828 23.5286 122.047 23.7891ZM115.445 17.8516C115.367 18.0859 115.328 18.3333 115.328 18.5938C115.328 19.0104 115.354 19.4531 115.406 19.9219C115.458 20.3646 115.589 20.7682 115.797 21.1328C116.005 21.4974 116.331 21.8099 116.773 22.0703C117.242 22.3047 117.88 22.4219 118.688 22.4219C118.818 22.4219 118.948 22.4219 119.078 22.4219C119.208 22.3958 119.339 22.3698 119.469 22.3438C119.547 22.0052 119.612 21.7057 119.664 21.4453C119.742 21.1589 119.781 20.9115 119.781 20.7031C119.833 20.2083 119.833 19.7005 119.781 19.1797C119.729 18.6589 119.625 18.1901 119.469 17.7734C119.339 17.3307 119.156 16.9792 118.922 16.7188C118.714 16.4323 118.453 16.2891 118.141 16.2891C117.646 16.2891 117.164 16.4323 116.695 16.7188C116.253 16.9792 115.836 17.3568 115.445 17.8516ZM112.945 24.7266C112.945 25.1953 112.971 25.6641 113.023 26.1328C113.076 26.5755 113.18 26.9792 113.336 27.3438C113.492 27.6823 113.701 27.9688 113.961 28.2031C114.221 28.4115 114.56 28.5156 114.977 28.5156C115.445 28.5156 115.875 28.4115 116.266 28.2031C116.656 27.9688 117.008 27.6823 117.32 27.3438C117.633 26.9792 117.906 26.5755 118.141 26.1328C118.401 25.6641 118.622 25.1823 118.805 24.6875C118.622 24.7135 118.44 24.7396 118.258 24.7656C118.102 24.7656 117.919 24.7656 117.711 24.7656C116.721 24.7656 115.862 24.4792 115.133 23.9062C114.43 23.3073 113.883 22.5521 113.492 21.6406C113.336 22.1875 113.206 22.7214 113.102 23.2422C112.997 23.763 112.945 24.2578 112.945 24.7266ZM147.183 21.4062C147.365 21.1979 147.547 21.0938 147.73 21.0938C147.938 21.0677 148.094 21.1198 148.198 21.25C148.329 21.3542 148.381 21.5234 148.355 21.7578C148.355 21.9922 148.251 22.2526 148.042 22.5391C147.547 23.2161 146.974 23.9193 146.323 24.6484C145.672 25.3516 144.969 26.0417 144.214 26.7188C143.485 27.3958 142.743 28.0339 141.988 28.6328C141.232 29.2318 140.503 29.7266 139.8 30.1172C139.019 30.5599 138.355 30.7812 137.808 30.7812C137.287 30.7812 136.766 30.4427 136.245 29.7656C135.777 29.1667 135.542 28.5286 135.542 27.8516C135.568 27.1484 135.724 26.276 136.011 25.2344C136.193 24.5833 136.441 23.8151 136.753 22.9297C137.092 22.0182 137.352 21.1458 137.534 20.3125C137.743 19.4792 137.808 18.776 137.73 18.2031C137.652 17.6042 137.313 17.3047 136.714 17.3047C136.297 17.3047 135.842 17.4479 135.347 17.7344C134.878 18.0208 134.396 18.3984 133.902 18.8672C133.433 19.3099 132.977 19.8177 132.534 20.3906C132.092 20.9635 131.701 21.5234 131.363 22.0703C131.154 23.0859 130.946 24.0885 130.738 25.0781C130.555 25.9115 130.36 26.8229 130.152 27.8125C129.969 28.776 129.787 29.6354 129.605 30.3906C129.448 30.5208 129.279 30.612 129.097 30.6641C128.915 30.7161 128.745 30.7422 128.589 30.7422C128.407 30.7422 128.224 30.7292 128.042 30.7031C127.834 30.651 127.639 30.5729 127.456 30.4688C127.3 30.3646 127.144 30.2214 126.988 30.0391C126.831 29.8828 126.714 29.6615 126.636 29.375C127.808 24.5573 128.732 20.6901 129.409 17.7734C130.086 14.8568 130.607 12.6302 130.972 11.0938C131.389 9.27083 131.675 8.00781 131.831 7.30469C131.909 6.8099 131.974 6.32812 132.027 5.85938C132.079 5.44271 132.105 5.01302 132.105 4.57031C132.105 4.1276 132.066 3.72396 131.988 3.35938C132.196 3.22917 132.417 3.125 132.652 3.04688C132.912 2.96875 133.159 2.90365 133.394 2.85156C133.68 2.77344 133.967 2.70833 134.253 2.65625C134.54 2.60417 134.8 2.57812 135.034 2.57812C135.243 2.57812 135.438 2.60417 135.62 2.65625C135.803 2.68229 135.92 2.76042 135.972 2.89062C136.128 3.02083 136.193 3.28125 136.167 3.67188C136.167 4.0625 136.141 4.46615 136.089 4.88281C135.985 5.3776 135.868 5.91146 135.738 6.48438C135.191 8.59375 134.579 10.651 133.902 12.6562C133.224 14.6354 132.599 16.7578 132.027 19.0234C132.365 18.5026 132.769 17.9688 133.238 17.4219C133.706 16.875 134.214 16.3802 134.761 15.9375C135.334 15.4688 135.933 15.0911 136.558 14.8047C137.183 14.4922 137.847 14.3359 138.55 14.3359C138.915 14.3359 139.253 14.401 139.566 14.5312C139.904 14.6354 140.191 14.8307 140.425 15.1172C140.685 15.3776 140.881 15.7422 141.011 16.2109C141.141 16.6536 141.193 17.2135 141.167 17.8906C141.167 18.3073 141.115 18.737 141.011 19.1797C140.933 19.6224 140.816 20.1172 140.659 20.6641C140.503 21.1849 140.295 21.7708 140.034 22.4219C139.8 23.0729 139.514 23.8281 139.175 24.6875C138.941 25.2865 138.758 25.7943 138.628 26.2109C138.498 26.6276 138.524 26.9922 138.706 27.3047C138.941 27.7214 139.396 27.8255 140.073 27.6172C140.777 27.3828 141.818 26.7057 143.198 25.5859C143.511 25.3255 143.863 25 144.253 24.6094C144.644 24.2188 145.021 23.8281 145.386 23.4375C145.751 23.0208 146.089 22.6302 146.402 22.2656C146.714 21.901 146.974 21.6146 147.183 21.4062Z" fill="black"/>
</svg>
