<svg width="294" height="63" viewBox="0 0 294 63" fill="none" xmlns="http://www.w3.org/2000/svg">
<path d="M0.375 49V43.0938L5.15625 42.125V10.4062L0.375 9.4375V3.5H5.15625H20.2188L31.9375 34.375H32.125L43.5312 3.5H63.25V9.4375L58.4375 10.4062V42.125L63.25 43.0938V49H43.6875V43.0938L48.6875 42.125V34.7188L48.875 13.7812L48.6875 13.75L35.4375 48.6875H27.7188L14.2188 14.0938L14 14.125L14.6562 33.5312V42.125L19.9688 43.0938V49H0.375ZM77.6875 49.6562C74.3542 49.6562 71.6771 48.75 69.6562 46.9375C67.6562 45.1042 66.6562 42.6354 66.6562 39.5312C66.6562 37.4271 67.2188 35.5625 68.3438 33.9375C69.4896 32.3125 71.1979 31.0417 73.4688 30.125C75.7396 29.2083 78.5625 28.75 81.9375 28.75H85.9688V26.5C85.9688 25 85.5312 23.7604 84.6562 22.7812C83.8021 21.8021 82.4896 21.3125 80.7188 21.3125C79.8646 21.3125 79.0833 21.4167 78.375 21.625C77.6875 21.8333 77.0521 22.1354 76.4688 22.5312L75.75 26.9062H68.625L68.5 17.8438C70.3333 16.9062 72.2917 16.125 74.375 15.5C76.4583 14.875 78.7708 14.5625 81.3125 14.5625C85.8333 14.5625 89.4062 15.6042 92.0312 17.6875C94.6562 19.7708 95.9688 22.7396 95.9688 26.5938V39.8438C95.9688 40.3229 95.9688 40.7917 95.9688 41.25C95.9896 41.6875 96.0417 42.1146 96.125 42.5312L99.6875 43.0938V49H87.6875C87.4375 48.5208 87.1771 47.9583 86.9062 47.3125C86.6354 46.6667 86.4479 46.0208 86.3438 45.375C85.2812 46.6875 84.0625 47.7292 82.6875 48.5C81.3125 49.2708 79.6458 49.6562 77.6875 49.6562ZM80.5625 42.4375C81.6042 42.4375 82.6146 42.2083 83.5938 41.75C84.5729 41.2917 85.3646 40.6667 85.9688 39.875V34.75H82C80.25 34.75 78.9062 35.1458 77.9688 35.9375C77.0521 36.7292 76.5938 37.7083 76.5938 38.875C76.5938 40 76.9479 40.875 77.6562 41.5C78.3854 42.125 79.3542 42.4375 80.5625 42.4375ZM110.75 62.6562C109.896 62.6562 109 62.5833 108.062 62.4375C107.146 62.2917 106.24 62.0938 105.344 61.8438L106.5 54.5938C106.917 54.6771 107.333 54.7396 107.75 54.7812C108.188 54.8438 108.604 54.875 109 54.875C110.312 54.875 111.458 54.5729 112.438 53.9688C113.438 53.3854 114.125 52.5104 114.5 51.3438L115.031 49.6875L103.938 21.75L99.5938 21.125V15.1875H118.656V21.125L114.5 21.75L119.438 36.0938L119.812 37.1875H120L125.844 21.6875L121.875 21.125V15.1875H139.438V21.125L135.531 21.6875L122.75 54C122.146 55.5417 121.344 56.9688 120.344 58.2812C119.344 59.5938 118.062 60.6458 116.5 61.4375C114.958 62.25 113.042 62.6562 110.75 62.6562ZM156.031 49.6562C152.99 49.6562 150.354 49.1146 148.125 48.0312C145.896 46.9479 144.167 45.4375 142.938 43.5C141.729 41.5625 141.125 39.3125 141.125 36.75C141.125 34.4375 141.729 32.4375 142.938 30.75C144.146 29.0417 145.979 27.2917 148.438 25.5C148.562 25.4167 148.688 25.3229 148.812 25.2188C148.938 25.1146 149.062 25.0208 149.188 24.9375C147.833 23.0625 146.823 21.3438 146.156 19.7812C145.49 18.1979 145.156 16.5938 145.156 14.9688C145.156 12.5521 145.677 10.4375 146.719 8.625C147.781 6.79167 149.26 5.375 151.156 4.375C153.073 3.35417 155.302 2.84375 157.844 2.84375C160.052 2.84375 162 3.33333 163.688 4.3125C165.375 5.27083 166.688 6.5625 167.625 8.1875C168.562 9.8125 169.031 11.625 169.031 13.625C169.031 15.6667 168.531 17.5625 167.531 19.3125C166.552 21.0625 165.229 22.5312 163.562 23.7188L160.812 25.625L168.844 34.9062C169.552 33.6771 170.104 32.3646 170.5 30.9688C170.896 29.5729 171.094 28.0938 171.094 26.5312H178.312C178.312 29.4271 177.969 32.1042 177.281 34.5625C176.615 37 175.562 39.1562 174.125 41.0312L180.844 48.8438L180.781 49H169.781L167.438 46.3438C165.646 47.4479 163.823 48.2812 161.969 48.8438C160.135 49.3854 158.156 49.6562 156.031 49.6562ZM156.656 42.0312C157.635 42.0312 158.625 41.9271 159.625 41.7188C160.625 41.4896 161.594 41.1458 162.531 40.6875L153.719 30.625L153.312 30.875C152.521 31.7708 151.958 32.6458 151.625 33.5C151.292 34.3333 151.125 35.2188 151.125 36.1562C151.125 37.8438 151.646 39.25 152.688 40.375C153.75 41.4792 155.073 42.0312 156.656 42.0312ZM156.375 20.3438L158.562 18.9688C159.75 18.2188 160.542 17.4688 160.938 16.7188C161.333 15.9688 161.531 15.1562 161.531 14.2812C161.531 13.2812 161.188 12.4062 160.5 11.6562C159.812 10.8854 158.906 10.5 157.781 10.5C156.531 10.5 155.562 10.9167 154.875 11.75C154.208 12.5833 153.875 13.625 153.875 14.875C153.875 15.7083 154.083 16.5625 154.5 17.4375C154.917 18.3125 155.542 19.2812 156.375 20.3438ZM197.625 49.6562C194.271 49.6562 191.344 49.1042 188.844 48C186.365 46.8958 184.417 45.2188 183 42.9688C181.604 40.6979 180.844 37.8229 180.719 34.3438L180.781 34.1562H190.125C190.312 37.1146 190.969 39.1458 192.094 40.25C193.219 41.3333 194.677 41.875 196.469 41.875C197.573 41.875 198.573 41.6354 199.469 41.1562C200.385 40.6771 201.125 39.9375 201.688 38.9375C202.25 37.9375 202.531 36.6667 202.531 35.125V10.4062L196.375 9.4375V3.5H217.281V9.4375L212.469 10.4062V35.125C212.469 38.1042 211.885 40.6875 210.719 42.875C209.573 45.0417 207.896 46.7188 205.688 47.9062C203.479 49.0729 200.792 49.6562 197.625 49.6562ZM236 49.6562C232.583 49.6562 229.656 48.9375 227.219 47.5C224.802 46.0417 222.948 44.0208 221.656 41.4375C220.385 38.8333 219.75 35.8229 219.75 32.4062V31.7812C219.75 28.4062 220.385 25.4271 221.656 22.8438C222.948 20.2604 224.802 18.2396 227.219 16.7812C229.635 15.3021 232.542 14.5625 235.938 14.5625C239.333 14.5625 242.24 15.2917 244.656 16.75C247.073 18.2083 248.917 20.2292 250.188 22.8125C251.479 25.3958 252.125 28.3854 252.125 31.7812V32.4062C252.125 35.8021 251.479 38.8021 250.188 41.4062C248.917 43.9896 247.073 46.0104 244.656 47.4688C242.26 48.9271 239.375 49.6562 236 49.6562ZM236 42.0312C237.458 42.0312 238.635 41.6354 239.531 40.8438C240.448 40.0521 241.115 38.9375 241.531 37.5C241.969 36.0625 242.188 34.3646 242.188 32.4062V31.7812C242.188 29.8854 241.969 28.2292 241.531 26.8125C241.115 25.375 240.448 24.25 239.531 23.4375C238.615 22.625 237.417 22.2188 235.938 22.2188C234.479 22.2188 233.292 22.625 232.375 23.4375C231.458 24.25 230.792 25.375 230.375 26.8125C229.958 28.2292 229.75 29.8854 229.75 31.7812V32.4062C229.75 34.3646 229.958 36.0729 230.375 37.5312C230.792 38.9688 231.458 40.0833 232.375 40.875C233.292 41.6458 234.5 42.0312 236 42.0312ZM254.969 49V43.0938L259.156 42.125V7.15625L254.344 6.1875V0.25H269.094V19.4375C270.135 17.8958 271.417 16.6979 272.938 15.8438C274.479 14.9896 276.25 14.5625 278.25 14.5625C281.583 14.5625 284.24 15.7083 286.219 18C288.198 20.2917 289.188 23.8333 289.188 28.625V42.125L293.375 43.0938V49H275.594V43.0938L279.188 42.125V28.5625C279.188 26.2292 278.771 24.6042 277.938 23.6875C277.104 22.75 275.896 22.2812 274.312 22.2812C273.208 22.2812 272.208 22.5 271.312 22.9375C270.417 23.3542 269.677 23.9896 269.094 24.8438V42.125L272.688 43.0938V49H254.969Z" fill="#DF2C1F"/>
</svg>
